<svg xmlns="http://www.w3.org/2000/svg" viewBox="0 0 96 96" width="96" height="96">
  <rect width="96" height="96" rx="20" fill="#17734A"/>
  <g fill="none" stroke="#FFFFFF" stroke-opacity="0.30" stroke-width="1.5">
    <rect x="24" y="10" width="48" height="76"/>
    <line x1="24" y1="29" x2="72" y2="29"/>
    <line x1="24" y1="67" x2="72" y2="67"/>
    <line x1="48" y1="29" x2="48" y2="67"/>
  </g>
  <line x1="18" y1="48" x2="78" y2="48" stroke="#FFFFFF" stroke-opacity="0.7" stroke-width="2"/>
  <path d="M60 86 Q58 72 52 63.5" fill="none" stroke="#FFFFFF" stroke-opacity="0.85" stroke-width="2.2" stroke-linecap="round" stroke-dasharray="3 4"/>
  <polygon points="48.6,59.8 56,62.2 50.4,67" fill="#FFFFFF" fill-opacity="0.85"/>
  <line x1="38" y1="42" x2="32" y2="24.5" stroke="#D7F34A" stroke-width="3" stroke-linecap="round"/>
  <polygon points="29.5,17 35.6,23.6 27.9,26.2" fill="#D7F34A"/>
  <circle cx="39" cy="45" r="4.5" fill="#D7F34A"/>
  <path d="M35.8 41.6 q2.6 3.4 0 6.8 M42.2 41.6 q-2.6 3.4 0 6.8" fill="none" stroke="#14213D" stroke-opacity="0.45" stroke-width="1"/>
  <circle cx="47" cy="55" r="6" fill="#FFFFFF" stroke="#14213D" stroke-opacity="0.55" stroke-width="2"/>
  <circle cx="47" cy="55" r="2.4" fill="#14213D"/>
</svg>
